<?xml version="1.0" encoding="utf-8"?>
<!-- Generator: Adobe Illustrator 19.2.0, SVG Export Plug-In . SVG Version: 6.00 Build 0)  -->
<svg version="1.1" id="Layer_1" xmlns="http://www.w3.org/2000/svg" xmlns:xlink="http://www.w3.org/1999/xlink" x="0px" y="0px"
	 viewBox="0 0 192.4 155.5" style="enable-background:new 0 0 192.4 155.5;" xml:space="preserve">
<g id="message">
	<path style="fill:#B99B3E;" d="M182.2,4H13.9C8.4,4,3,7.4,3,12.9v122.6C3,141,8.4,146,13.9,146h8.6c0.2,3,0,4.3-1,6.6
		c-0.5,1.1,0.7,2.3,1.7,1.8c3.2-1.7,7.5-4.3,10-8.3h149.1c5.5,0,8.8-5,8.8-10.5V12.9C191,7.4,187.8,4,182.2,4z"/>
	<path style="fill:#F7CE52;" d="M180,2H12.4C6.9,2,2,5.9,2,11.4v122.1C2,139,6.9,144,12.4,144h8.5c0.2,2,0,4.3-1,6.5
		c-0.5,1.1,0.7,2.3,1.7,1.8c3.2-1.7,7.5-4.3,9.9-8.3H180c5.5,0,9-5,9-10.5V11.4C189,5.9,185.5,2,180,2z"/>
	<g id="nPQEuM_2_">
		<g>
			<path style="fill:#FFFFFF;" d="M92.6,125.5c-1.9-0.3-3.8-0.5-5.6-0.8c-4.3-0.7-8.3-2.1-12.2-4.1c-4.5-2.2-8.5-5.1-12-8.7
				c-3.4-3.4-6.2-7.3-8.4-11.7c-2.1-4.1-3.5-8.3-4.3-12.8c-0.8-4.6-0.9-9.3-0.3-13.9c0.8-6.4,2.9-12.3,6.2-17.8
				c2.5-4.1,5.5-7.8,9.1-10.9c3.7-3.3,7.9-5.9,12.5-7.8c4.1-1.7,8.4-2.8,12.8-3.3c0.7-0.1,0.8-0.3,0.8-0.9c0-0.6,0-1.3,0-1.8
				c-0.8-0.3-1.6-0.4-2.2-0.7c-1.2-0.5-1.8-1.5-1.9-2.8c-0.1-1.5-0.3-3,0.9-4.2c0.6-0.6,1.3-0.9,2-1.4c3.6,0,7.3,0,10.9,0
				c0.7,0.5,1.4,0.8,2,1.4c1.2,1.2,1,2.8,0.8,4.3c-0.1,1.2-0.8,2.1-1.8,2.7c-0.7,0.3-1.4,0.5-2.3,0.7c0,0.8,0,1.7,0,2.6
				c1.8,0.3,3.5,0.6,5.3,0.9c4.9,1,9.6,2.7,13.8,5.4c2.6,1.6,4.9,3.6,7.4,5.3c0.2,0.1,0.7,0.3,0.8,0.2c0.9-0.7,1.8-1.5,2.7-2.3
				c-0.3-0.4-0.4-0.6-0.5-0.7c-0.6-1.1-0.4-2.3,0.8-3.3c1-0.9,2.1-1,3.1-0.2c1.3,1.2,2.5,2.4,3.8,3.7c0.9,0.9,1.2,2,0.7,2.9
				c-0.6,1.3-1.8,1.9-3.1,1.8c-0.2,0-0.5,0-0.7,0.1c-1,0.9-1.9,1.8-2.8,2.7c0.2,0.3,0.4,0.5,0.5,0.7c4.2,5.2,7.1,11.1,8.8,17.6
				c1.5,6.1,1.8,12.2,0.8,18.4c-1.2,7.7-4.2,14.6-9,20.8c-2.4,3.1-5.1,5.9-8.2,8.2c-2,1.5-4.2,2.9-6.4,4.2c-4.2,2.4-8.7,4-13.5,4.8
				c-1.8,0.3-3.6,0.5-5.5,0.8C96.5,125.5,94.6,125.5,92.6,125.5z M95.4,119.3c22.1-0.1,39.9-17.9,39.9-39.9c0-21.9-17.9-40-39.8-40
				c-22.3,0-40,17.8-40.1,39.9C55.5,101.4,73.5,119.4,95.4,119.3z"/>
			<path style="fill:#FFF650;" d="M130.9,79c-0.7,0-1.3,0-1.9,0c-0.2,0-0.5-0.4-0.5-0.6c-0.2-2.7-2.6-4.9-5.9-4.8
				c-6.2,0.1-12.4,0-18.5,0c-0.5,0-0.8,0-1.1-0.5c-1.9-2.9-4.7-4.5-8.2-4.7c-0.1,0-0.2,0-0.3,0c-0.1,0-0.1,0-0.2-0.1
				c0-0.3,0-0.5,0-0.8c0-8.1,0-16.2,0-24.3c0-0.7,0.1-0.9,0.9-0.9c7.1,0.2,13.6,2.2,19.5,6.1c4.6,3,8.3,6.9,11.1,11.7
				c3.3,5.6,5.1,11.6,5.3,18C130.9,78.4,130.9,78.6,130.9,79z"/>
			<path style="fill:#FFFFFF;" d="M112.6,80.3c-3.4,0-6.8,0-10.3,0c-0.7,0-1.1,0.2-1.3,0.9c-1.9,4.9-8.7,5.9-12.1,1.9
				c-3.5-4-1.8-10.6,3.9-12c3.2-0.8,7,1.1,8.1,4.2c0.3,0.7,0.6,0.9,1.3,0.9c6.8,0,13.5,0,20.3,0c0.4,0,0.8,0,1.2,0.1
				c1,0.2,1.7,1,1.7,2c0,1-0.7,1.8-1.7,2c-0.3,0-0.6,0-0.9,0C119.4,80.3,116,80.3,112.6,80.3z"/>
		</g>
	</g>
</g>
</svg>
