<?xml version="1.0" encoding="utf-8"?>
<!-- Generator: Adobe Illustrator 19.2.0, SVG Export Plug-In . SVG Version: 6.00 Build 0)  -->
<svg version="1.1" id="washer-all" xmlns="http://www.w3.org/2000/svg" xmlns:xlink="http://www.w3.org/1999/xlink" x="0px" y="0px"
	 viewBox="0 0 279 382.4" enable-background="new 0 0 279 382.4" xml:space="preserve">
<g id="washer">
	<g>
		<path fill="#00C3FF" d="M279.3,381.9H1v-367C1,7.3,7.1,1.2,14.6,1.2h251c7.5,0,13.7,6.1,13.7,13.7V381.9z"/>
		<path fill="#00B8FF" d="M275.9,19.2H4.2c-1.8,0-3.2,1.4-3.2,3.2v45.8c0,5.7,4.6,10.2,10.2,10.2h257.7c5.7,0,10.2-4.6,10.2-10.2
			V22.4C279.1,20.7,277.7,19.2,275.9,19.2z"/>
		
			<rect x="1" y="332" transform="matrix(-1 -7.702695e-11 7.702695e-11 -1 280.1348 714.7843)" fill="#00B8FF" width="278.2" height="50.8"/>
		<circle fill="#0092BF" cx="143.8" cy="201.6" r="94.3"/>
		<circle fill="#006E8F" cx="139.6" cy="195.4" r="94.3"/>
		<circle fill="#002530" cx="139.6" cy="195.4" r="71.9"/>
		<g>
			<defs>
				<circle id="SVGID_1_" cx="139.6" cy="195.4" r="71.9"/>
			</defs>
			<clipPath id="SVGID_2_">
				<use xlink:href="#SVGID_1_"  overflow="visible"/>
			</clipPath>
			<g clip-path="url(#SVGID_2_)">
				<defs>
					<circle id="SVGID_3_" cx="149.5" cy="205.2" r="71.9"/>
				</defs>
				<clipPath id="SVGID_4_">
					<use xlink:href="#SVGID_3_"  overflow="visible"/>
				</clipPath>
				<circle clip-path="url(#SVGID_4_)" fill="#003140" cx="139.6" cy="195.4" r="71.9"/>
				<path clip-path="url(#SVGID_4_)" fill="#00212D" d="M60,189.9c52.6,0,57-22,88.5-22s29.4,23.4,67.1,23.4s-4.3,51.5-4.3,51.5
					l-65.8,45.4l-82.2-24.8L60,189.9z"/>
			</g>
		</g>
		<path fill="#0092BF" d="M223.7,213.3h-5.8c-0.6,0-1.1-0.6-1-1.2c1.9-9.2,1.9-18.6,0-27.8c-0.1-0.6,0.3-1.2,1-1.2h5.8
			c0.5,0,0.9,0.3,1,0.8c2,9.4,2,19.2,0,28.6C224.6,212.9,224.2,213.3,223.7,213.3z"/>
		<g>
			<defs>
				<path id="SVGID_5_" d="M225.2,215h-5.8c-0.6,0-1.1-0.6-1-1.2c1.9-9.2,1.9-18.6,0-27.8c-0.1-0.6,0.3-1.2,1-1.2h5.8
					c0.5,0,0.9,0.3,1,0.8c2,9.4,2,19.2,0,28.6C226.1,214.6,225.7,215,225.2,215z"/>
			</defs>
			<clipPath id="SVGID_6_">
				<use xlink:href="#SVGID_5_"  overflow="visible"/>
			</clipPath>
			<path clip-path="url(#SVGID_6_)" fill="#00C3FF" d="M223.7,213.3h-5.8c-0.6,0-1.1-0.6-1-1.2c1.9-9.2,1.9-18.6,0-27.8
				c-0.1-0.6,0.3-1.2,1-1.2h5.8c0.5,0,0.9,0.3,1,0.8c2,9.4,2,19.2,0,28.6C224.6,212.9,224.2,213.3,223.7,213.3z"/>
		</g>
	</g>
	<g>
		<circle fill="#009AD2" cx="241.1" cy="49" r="20.1"/>
		<g>
			<circle fill="#0092BF" cx="242.1" cy="49.6" r="12.6"/>
			<circle fill="#00C3FF" cx="241.1" cy="48.7" r="12.6"/>
		</g>
	</g>
	<g>
		<circle fill="#009AD2" cx="188.6" cy="49" r="20.1"/>
		<g>
			<circle fill="#0092BF" cx="189.6" cy="49.6" r="12.6"/>
			<circle fill="#00C3FF" cx="188.6" cy="48.7" r="12.6"/>
		</g>
	</g>
	<path fill="#009AD2" d="M57,48.9H19.4c-2.1,0-3.7-1.7-3.7-3.7v-6.6c0-2.1,1.7-3.7,3.7-3.7H57c2.1,0,3.7,1.7,3.7,3.7v6.6
		C60.7,47.2,59,48.9,57,48.9z"/>
	<g>
		<polygon fill="#0092BF" points="245,139.3 243.9,136 245,99.1 257.7,92.1 259.4,93.7 259.4,139.3 		"/>
	</g>
</g>
<g id="whistle">
	<polygon fill="#F7CE52" points="243.9,136 243.9,97.3 257.7,92.1 257.7,136 	"/>
	<path fill="#FFF6BD" d="M254.7,96.4V133h-7.9V99.4L254.7,96.4 M257.7,92.1l-13.9,5.2V136h13.9V92.1L257.7,92.1z"/>
</g>
</svg>
