<?xml version="1.0" encoding="utf-8"?>
<!-- Generator: Adobe Illustrator 19.2.1, SVG Export Plug-In . SVG Version: 6.00 Build 0)  -->
<svg version="1.1" id="Layer_1" xmlns="http://www.w3.org/2000/svg" xmlns:xlink="http://www.w3.org/1999/xlink" x="0px" y="0px"
	 viewBox="0 0 596.2 194.5" style="enable-background:new 0 0 596.2 194.5;" xml:space="preserve">
<style type="text/css">
	.st0{fill:#00FFFF;}
</style>
<g>
	<g>
		<path class="st0" d="M149.7,73.4l4.8,15.2l4.8-15.2h15.8l-12.7,33.7l6.3,18.7l19.3-52.4h16.3l-28.8,73h-14.6l-6.4-19.1l-6.4,19.1
			h-14.6l-28.8-73h16.3l19.3,52.4l6.3-18.7l-12.7-33.7H149.7z"/>
	</g>
	<g>
		<path class="st0" d="M213,42.4H229v39.3c4.4-5.3,11.4-9.2,20.9-9.2c17.4,0,28,10.7,28,30.1v43.8h-16.1v-40.3
			c0-11.4-4.8-18.4-15.9-18.4c-10.4,0-16.9,7.7-16.9,18.4v40.3H213V42.4z"/>
	</g>
	<g>
		<path class="st0" d="M298.8,40.6c6,0,10.8,4.8,10.8,10.9c0,6.1-4.8,10.9-10.8,10.9c-6,0-10.8-4.8-10.8-10.9
			C288,45.4,292.8,40.6,298.8,40.6z M290.8,83.4l16.1-10v73h-16.1V83.4z"/>
	</g>
	<g>
		<path class="st0" d="M332.5,122.3c0,6.1,4.8,9.8,9.6,9.8c5.5,0,9.3-3.2,9.3-9c0-8.2-7.2-8.8-14.3-10.8c-7.3-2-15.2-7.7-15.2-19.6
			c0-11.7,9-20.1,20.1-20.1c7.6,0,13.3,3.4,17.4,9.3l-9.9,9.8c-1.2-2.9-3.5-4.8-6.4-4.8c-3.8,0-5.8,2.9-5.8,5.8
			c0,6.4,8.2,6.3,16.1,9.2c7.4,2.8,14.2,8.5,14.2,20.9c0,14.6-10.7,24.5-25.4,24.5c-15,0-25-11.1-25-25H332.5z"/>
	</g>
	<g>
		<path class="st0" d="M385.9,42.4H402v31h15.7v15.2H402v57.8h-16.1V88.6h-14.7V73.4h14.7V42.4z"/>
	</g>
	<g>
		<path class="st0" d="M429,42.4H445v104H429V42.4z"/>
	</g>
	<g>
		<path class="st0" d="M473.4,115.5c1.8,9.2,10.1,16.6,20.6,16.6c7.4,0,13.4-2.3,16.5-7h19.1c-5,13.3-19.1,22.2-35.6,22.2
			c-21.2,0-37.5-16.6-37.5-37.4c0-20.7,16.3-37.4,37.1-37.4c20.7,0,37.1,16.6,37.1,37.4c0,1.9-0.1,3.8-0.4,5.5H473.4z M474.2,101.2
			H513c-2.3-7.6-10.2-13.7-19.4-13.7S476.5,93.6,474.2,101.2z"/>
	</g>
</g>
<g>
	<path class="st0" d="M596.2,194.5H73.3L0,0h596.2V194.5z M80.3,184.5h506V10H14.5L80.3,184.5z"/>
</g>
</svg>
