<?xml version="1.0" encoding="utf-8"?>
<!-- Generator: Adobe Illustrator 19.2.0, SVG Export Plug-In . SVG Version: 6.00 Build 0)  -->
<svg version="1.1" id="Layer_1" xmlns="http://www.w3.org/2000/svg" xmlns:xlink="http://www.w3.org/1999/xlink" x="0px" y="0px"
	 viewBox="0 0 310 134" style="enable-background:new 0 0 310 134;" xml:space="preserve">
<g id="note">
	<path style="fill:#006E8F;" d="M294.8,2H37c-7.3,0-13,5.7-13,13v25.8L0.1,64.7L24,88.6v31.7c0,7.3,5.8,13.7,13,13.7h257.8
		c7.3,0,13.2-6.4,13.2-13.7V15C308,7.7,302.1,2,294.8,2z"/>
	<path style="fill:#00C3FF;" d="M63.2,63.4c-0.1-0.2-0.1-0.3-0.1-0.5c-0.8-2.9-1.7-5.9-2.5-8.8c-1.2-4.1-2.3-8.3-3.5-12.4
		c-1.1-3.9,1.2-7.9,5.1-8.9c2.9-0.7,6.2,0.6,7.9,3.3c0.4,0.6,0.7,1.3,0.9,2.1c0.7,2.4,1.4,4.7,2,7.1c0,0.1,0.1,0.3,0.1,0.4
		c0.5-0.3,1-0.5,1.6-0.7c2.5-1,5.7-0.3,7.5,1.6c0.3,0.4,0.6,0.4,1,0.2c2.5-1,5.5-0.5,7.6,1.6c0.1,0.1,0.2,0.2,0.2,0.2
		c0.7-0.3,1.4-0.6,2.1-0.7c2.7-0.6,5,0.3,6.8,2.4c0.9,1,1.5,2.2,1.9,3.5c1.2,4.1,2.3,8.2,3.5,12.4c0.1,0.3,0.1,0.7,0.1,1
		c0,8.6,0,17.1,0.1,25.7c0,0.3-0.1,0.4-0.4,0.5c-9,2.5-18,5.1-26.9,7.6c-0.3,0.1-0.5,0-0.6-0.2c-1.8-2.6-3.7-5.1-5.6-7.7
		c-0.2-0.3-0.5-0.6-0.8-0.9c-2.3-2.1-4.7-4.2-7.1-6.3c-3.9-3.6-7.8-7.1-11.7-10.8c-0.5-0.5-0.9-1.3-1.1-2C50,70,51,66.5,53.6,64.3
		c2.5-2.2,6.2-2.6,9.2-1C62.9,63.3,63,63.3,63.2,63.4z M92.6,66.4c0-0.1-0.1-0.3-0.1-0.4c-0.6-2.1-1.2-4.1-1.7-6.2
		c-0.7-2.4-1.3-4.8-2-7.2c-0.5-1.8-2.3-2.7-4-2.2c-0.3,0.1-0.5,0.2-0.3,0.6c1.2,4.1,2.3,8.3,3.5,12.4c0,0.2,0.1,0.3,0.1,0.5
		c-1.3,0.4-2.6,0.7-3.9,1.1c0-0.2-0.1-0.3-0.1-0.4c-0.2-0.9-0.5-1.7-0.7-2.6c-1-3.7-2.1-7.4-3.1-11.1c0-0.2-0.1-0.3-0.2-0.5
		c-0.5-1.2-1.4-1.9-2.8-2c-1.1-0.1-2,0.4-2.7,1.3c-0.2,0.3-0.2,0.5-0.1,0.8c1.1,3.9,2.2,7.7,3.3,11.6c0,0.1,0.1,0.3,0.1,0.5
		c-1.3,0.4-2.6,0.7-3.9,1.1c-0.1-0.2-0.1-0.3-0.1-0.5c-2.2-7.9-4.4-15.7-6.7-23.6c-0.1-0.2-0.1-0.4-0.2-0.5
		c-0.3-1.1-1.1-1.8-2.1-2.3c-0.7-0.3-1.4-0.4-2.1-0.1c-1.6,0.6-2.4,2.2-1.9,3.9c0.7,2.4,1.3,4.8,2,7.1c2.6,9,5.1,18,7.6,27.1
		c0,0.1,0,0.2,0.1,0.4c-0.7-0.7-1.4-1.3-2.1-1.8c-1.9-1.7-3.9-3.5-5.8-5.2c-0.6-0.5-1.1-1-1.7-1.4c-1.8-1.1-4.2-0.6-5.5,1.1
		c-1.3,1.7-1,4,0.6,5.5c3.7,3.4,7.5,6.7,11.3,10.1c1.8,1.6,3.6,3.2,5.4,4.8c0.7,0.6,1.5,1.2,2.1,2c1.5,1.9,2.8,3.8,4.2,5.8
		c0.2,0.3,0.3,0.3,0.6,0.2c4.6-1.3,9.2-2.6,13.8-3.9c2.5-0.7,5-1.4,7.6-2.1c0.2-0.1,0.3-0.2,0.3-0.4c0-0.9,0-1.8,0-2.7
		c0-6.1,0-12.2,0-18.2c0-0.6,0.1-1.3-0.1-1.9c-1.2-4.2-2.4-8.4-3.6-12.6c-0.3-0.9-0.8-1.7-1.6-2.2c-1-0.6-2-0.7-3-0.2
		c-0.3,0.1-0.3,0.3-0.2,0.6c1.2,4,2.3,8.1,3.4,12.2c0,0.1,0.1,0.3,0.1,0.5C95.2,65.7,93.9,66,92.6,66.4z"/>
	<g>
		<path style="fill:#FFFFFF;" d="M135.6,46.6c-1.6-1.4-3.8-2.3-5.9-2.3c-3.5,0-6.5,2.9-6.5,6.6c0,3.7,2.9,6.6,6.5,6.6
			c2.2,0,4.3-0.9,5.9-2.3l0.1,0.1v2.9c-1.6,1.2-3.7,1.9-6.1,1.9c-5.2,0-9.4-4.2-9.4-9.2s4.2-9.2,9.4-9.2c2.4,0,4.4,0.7,6.1,1.9v2.9
			L135.6,46.6z"/>
		<path style="fill:#FFFFFF;" d="M141.4,42l0.1,0.1v13.3c0,1.6,0.6,2.3,1.6,2.3c0.8,0,1.5-0.3,2.3-1l0.1,0.1v2.5
			c-0.6,0.4-1.5,0.8-2.4,0.8c-2.7,0-4.2-1.6-4.2-4.6V42.2l0.1-0.1H141.4z"/>
		<path style="fill:#FFFFFF;" d="M149.2,43.4l1.5,1.5v0.3l-1.5,1.5H149l-1.5-1.5V45l1.5-1.5H149.2z M150.3,47.9l0.1,0.1v11.6
			l-0.1,0.1H148l-0.1-0.1V48l0.1-0.1H150.3z"/>
		<path style="fill:#FFFFFF;" d="M164.2,51.5c-1.3-1.1-2.5-1.6-3.9-1.6c-2.4,0-3.9,1.7-3.9,3.9c0,2.2,1.5,3.9,3.9,3.9
			c1.4,0,2.7-0.5,3.9-1.6l0.1,0.1v2.7c-1,0.8-2.4,1.3-4.1,1.3c-3.9,0-6.6-2.8-6.6-6.3c0-3.5,2.7-6.3,6.6-6.3c1.6,0,3,0.5,4.1,1.3
			v2.7L164.2,51.5z"/>
		<path style="fill:#FFFFFF;" d="M169.8,42l0.1,0.1v10l4.6-4.2l0.3-0.1h2.9l0.1,0.1l-5.9,5.2l6.5,6.5l-0.1,0.1h-2.9l-0.3-0.1
			l-5.1-4.9v4.9l-0.1,0.1h-2.3l-0.1-0.1V42.2l0.1-0.1H169.8z"/>
		<path style="fill:#FFFFFF;" d="M188,47.9l0.1,0.1l3.3,8.2l2.7-7.7l0.1-0.1h2l0.1,0.1l2.7,7.7l3.3-8.2l0.1-0.1h2.5l0.1,0.1
			l-4.8,11.6l-0.1,0.1h-2.3l-0.1-0.1l-2.5-6.6l-2.5,6.6l-0.1,0.1h-2.3l-0.1-0.1L185.3,48l0.1-0.1H188z"/>
		<path style="fill:#FFFFFF;" d="M207.6,48.2c0.8-0.4,1.8-0.8,3.2-0.8c2.8,0,4.7,1.6,4.7,5.1v7.1l-0.1,0.1H213l-0.1-0.1v-0.4
			c-0.9,0.6-2.1,0.9-2.9,0.9c-2.2,0-4.2-1-4.2-3.4c0-3.5,3.7-4.4,7.1-4.7c0-1.4-0.9-2.2-2.3-2.2s-2.5,0.4-4,1.4l-0.1-0.1L207.6,48.2
			z M212.9,54.2c-2.7,0.1-4.4,1-4.4,2.3c0,0.9,0.6,1.3,1.8,1.3c0.9,0,1.8-0.3,2.7-0.8V54.2z"/>
		<path style="fill:#FFFFFF;" d="M226.7,51.2c-1.3-0.9-2.5-1.3-3.8-1.3c-1.1,0-1.8,0.5-1.8,1.1c0,2.2,7,0.4,7,5.3
			c0,2.2-1.9,3.8-4.9,3.8c-1.5,0-3.4-0.4-4.6-1.1v-2.5l0.1-0.1c1.4,0.9,3,1.4,4.4,1.4c1.8,0,2.3-0.5,2.3-1.4c0-2.4-7-0.6-7-5.3
			c0-2,1.8-3.5,4.4-3.5c1.5,0,2.9,0.4,3.9,1V51L226.7,51.2z"/>
		<path style="fill:#FFFFFF;" d="M233.6,42l0.1,0.1v6.2c0.9-0.5,2-0.9,3.2-0.9c3.8,0,5.7,2.2,5.7,5.6v6.6l-0.1,0.1h-2.3l-0.1-0.1
			v-6.5c0-2-1-3.3-3.2-3.3c-1.3,0-2.5,0.5-3.2,1.3v8.5l-0.1,0.1h-2.3l-0.1-0.1V42.2l0.1-0.1H233.6z"/>
		<path style="fill:#FFFFFF;" d="M257,58.5c-1.1,0.8-2.9,1.6-4.8,1.6c-3.7,0-6.6-2.9-6.6-6.4c0-3.4,2.4-6.2,6.1-6.2
			c3.2,0,5.3,2.8,5.3,6.2c0,0.1,0,0.4-0.1,0.6l-0.3,0.1h-8.4c0.3,1.9,1.8,3.3,4,3.3c1.6,0,3.4-0.8,4.7-2l0.1,0.1V58.5z M254.4,52.4
			c-0.1-1.4-1.4-2.5-2.8-2.5c-1.8,0-3,1.1-3.4,2.5H254.4z"/>
		<path style="fill:#FFFFFF;" d="M262.4,47.9l0.1,0.1v0.4c0.9-0.5,2-0.9,3.2-0.9c0.8,0,1.5,0.1,2.3,0.5l0.1,2.5l-0.1,0.1
			c-0.8-0.6-1.6-0.8-2.3-0.8c-1.3,0-2.5,0.5-3.2,1.3v8.5l-0.1,0.1h-2.3l-0.1-0.1V48l0.1-0.1H262.4z"/>
		<path style="fill:#FFFFFF;" d="M124.1,75.2l0.1,0.2v2.9h4.6l0.1,0.1v2.3l-0.1,0.1h-4.6v4.6c0,2,0.9,2.8,1.9,2.8
			c0.7,0,1.7-0.2,2.7-0.9l0.1,0.1v2.4c-0.7,0.4-2,0.8-2.8,0.8c-2.8,0-4.4-1.8-4.4-5.1v-4.7h-2l-0.1-0.1v-2.3l0.1-0.1h2v-2.9l0.1-0.1
			H124.1z"/>
		<path style="fill:#FFFFFF;" d="M143,84.2c0,3.5-2.8,6.3-6.3,6.3s-6.3-2.8-6.3-6.3s2.8-6.3,6.3-6.3S143,80.7,143,84.2z M133,84.2
			c0,2.3,1.5,3.9,3.7,3.9s3.7-1.6,3.7-3.9s-1.5-3.9-3.7-3.9S133,81.9,133,84.2z"/>
		<path style="fill:#FFFFFF;" d="M160.4,81.5c-1.3-0.9-2.5-1.3-3.8-1.3c-1.1,0-1.8,0.5-1.8,1.1c0,2.2,7,0.4,7,5.3
			c0,2.2-1.9,3.8-4.9,3.8c-1.5,0-3.4-0.4-4.6-1.1v-2.5l0.1-0.1c1.4,0.9,3,1.4,4.4,1.4c1.8,0,2.3-0.5,2.3-1.4c0-2.4-7-0.6-7-5.3
			c0-2,1.8-3.5,4.4-3.5c1.5,0,2.9,0.4,3.9,1v2.5L160.4,81.5z"/>
		<path style="fill:#FFFFFF;" d="M167.3,75.2l0.1,0.2v2.9h4.6l0.1,0.1v2.3l-0.1,0.1h-4.6v4.6c0,2,0.9,2.8,1.9,2.8
			c0.7,0,1.7-0.2,2.7-0.9l0.1,0.1v2.4c-0.7,0.4-2,0.8-2.8,0.8c-2.8,0-4.4-1.8-4.4-5.1v-4.7h-2l-0.1-0.1v-2.3l0.1-0.1h2v-2.9l0.1-0.1
			H167.3z"/>
		<path style="fill:#FFFFFF;" d="M175.4,78.6c0.8-0.4,1.8-0.8,3.2-0.8c2.8,0,4.7,1.6,4.7,5.1V90l-0.1,0.1h-2.3l-0.1-0.1v-0.4
			c-0.9,0.6-2.1,0.9-2.9,0.9c-2.2,0-4.2-1-4.2-3.4c0-3.5,3.7-4.4,7.1-4.7c0-1.4-0.9-2.2-2.3-2.2s-2.5,0.4-4.1,1.4l-0.1-0.1
			L175.4,78.6z M180.8,84.6c-2.7,0.1-4.4,1-4.4,2.3c0,0.9,0.6,1.3,1.8,1.3c0.9,0,1.8-0.3,2.7-0.8V84.6z"/>
		<path style="fill:#FFFFFF;" d="M189.5,78.2l0.1,0.1v0.4c0.9-0.5,2-0.9,3.2-0.9c0.8,0,1.5,0.1,2.3,0.5l0.1,2.5l-0.1,0.1
			c-0.8-0.6-1.6-0.8-2.3-0.8c-1.3,0-2.5,0.5-3.2,1.3V90l-0.1,0.1h-2.3l-0.1-0.1V78.4l0.1-0.1H189.5z"/>
		<path style="fill:#FFFFFF;" d="M200.8,75.2l0.1,0.2v2.9h4.6l0.1,0.1v2.3l-0.1,0.1h-4.6v4.6c0,2,0.9,2.8,1.9,2.8
			c0.7,0,1.7-0.2,2.7-0.9l0.1,0.1v2.4c-0.7,0.4-2,0.8-2.8,0.8c-2.8,0-4.4-1.8-4.4-5.1v-4.7h-2l-0.1-0.1v-2.3l0.1-0.1h2v-2.9l0.1-0.1
			H200.8z"/>
		<path style="fill:#FFFFFF;" d="M224.4,81.9c-1.3-1.1-2.5-1.6-3.9-1.6c-2.4,0-3.9,1.7-3.9,3.9c0,2.2,1.5,3.9,3.9,3.9
			c1.4,0,2.7-0.5,3.9-1.6l0.1,0.1v2.7c-1,0.8-2.4,1.3-4,1.3c-3.9,0-6.6-2.8-6.6-6.3c0-3.5,2.7-6.3,6.6-6.3c1.6,0,3,0.5,4,1.3v2.7
			L224.4,81.9z"/>
		<path style="fill:#FFFFFF;" d="M228.6,78.2l0.3,0.1l3.7,7.7l3.7-7.7l0.3-0.1h2.7l0.1,0.1l-7.5,14.7c-1,1.8-2.3,3.2-5.3,3.2
			l-0.1-0.2v-2l0.1-0.1c1.5,0,2.5-0.8,3.2-2l1.5-3.2l-5.3-10.4l0.1-0.1H228.6z"/>
		<path style="fill:#FFFFFF;" d="M250.8,81.9c-1.3-1.1-2.5-1.6-3.9-1.6c-2.4,0-3.9,1.7-3.9,3.9c0,2.2,1.5,3.9,3.9,3.9
			c1.4,0,2.7-0.5,3.9-1.6l0.1,0.1v2.7c-1,0.8-2.4,1.3-4,1.3c-3.9,0-6.6-2.8-6.6-6.3c0-3.5,2.7-6.3,6.6-6.3c1.6,0,3,0.5,4,1.3v2.7
			L250.8,81.9z"/>
		<path style="fill:#FFFFFF;" d="M256.1,72.4l0.1,0.1v13.3c0,1.6,0.6,2.3,1.6,2.3c0.8,0,1.5-0.3,2.3-1l0.1,0.1v2.5
			c-0.6,0.4-1.5,0.8-2.4,0.8c-2.7,0-4.2-1.6-4.2-4.6V72.6l0.1-0.1H256.1z"/>
		<path style="fill:#FFFFFF;" d="M272.7,88.9c-1.1,0.8-2.9,1.6-4.8,1.6c-3.7,0-6.6-2.9-6.6-6.4c0-3.4,2.4-6.2,6.1-6.2
			c3.2,0,5.3,2.8,5.3,6.2c0,0.1,0,0.4-0.1,0.6l-0.3,0.1h-8.4c0.3,1.9,1.8,3.3,4,3.3c1.6,0,3.4-0.8,4.7-2l0.1,0.1V88.9z M270.1,82.8
			c-0.1-1.4-1.4-2.5-2.8-2.5c-1.8,0-3,1.1-3.4,2.5H270.1z"/>
	</g>
</g>
</svg>
